<svg width="20" height="16" viewBox="0 0 20 16" fill="none" xmlns="http://www.w3.org/2000/svg">
<path fill-rule="evenodd" clip-rule="evenodd" d="M18.4171 0.203469C18.1242 -0.0678229 17.6494 -0.0678229 17.3565 0.203469L15.2688 2.13729C13.656 1.09441 11.855 0.541432 9.99952 0.541432C7.94277 0.541432 5.94717 1.21907 4.21836 2.48646C2.51042 3.73069 1.08691 5.52513 0.0614378 7.72513C-0.020261 7.9004 -0.0204876 8.09909 0.0608113 8.27453C0.946425 10.1856 2.13599 11.7888 3.55447 12.9881L1.58323 14.8141L1.51062 14.892C1.29277 15.164 1.31698 15.5499 1.58323 15.7965C1.87611 16.0678 2.35096 16.0678 2.64384 15.7965L18.4171 1.1859L18.4897 1.10799C18.7075 0.836031 18.6833 0.450097 18.4171 0.203469ZM4.61635 12.0045L6.75412 10.0243C6.32252 9.43588 6.08594 8.73885 6.08594 8.00113C6.08594 5.99383 7.83357 4.37395 9.99975 4.37395C10.7919 4.37395 11.5524 4.59464 12.1863 4.99255L14.1887 3.13771C12.8811 2.34396 11.456 1.9308 9.99952 1.9308C8.28986 1.9308 6.6196 2.49797 5.1474 3.57723C3.73764 4.60425 2.52933 6.08053 1.61698 7.90613L1.57033 8.00115L1.61568 8.09423C2.40865 9.6892 3.43045 11.0154 4.61635 12.0045ZM11.0932 6.0051C10.7615 5.8486 10.3873 5.76332 9.99975 5.76332C8.66218 5.76332 7.58587 6.76095 7.58587 8.00113C7.58587 8.36242 7.67656 8.70543 7.84664 9.01235L11.0932 6.0051ZM13.1348 7.82658L13.2361 7.83703C13.6438 7.90494 13.9148 8.2661 13.8415 8.6437C13.5541 10.1238 12.2974 11.2902 10.7005 11.5588C10.2929 11.6273 9.90258 11.3768 9.8286 10.9993C9.75461 10.6219 10.025 10.2603 10.4325 10.1917C11.4135 10.0268 12.1887 9.30737 12.3653 8.39778C12.4325 8.05164 12.7657 7.81184 13.1348 7.82658ZM16.9974 4.5318C17.3283 4.30106 17.7985 4.36251 18.0476 4.66904C18.7734 5.56216 19.4076 6.58745 19.9387 7.72505C20.0208 7.90085 20.0209 8.10024 19.9389 8.2761C17.8617 12.7337 14.1351 15.4589 10.0008 15.4589C9.05962 15.4589 8.12839 15.3179 7.2315 15.0407C6.83861 14.9192 6.6264 14.5257 6.75753 14.1618C6.88865 13.7979 7.31345 13.6013 7.70634 13.7228C8.4506 13.9528 9.22151 14.0696 10.0008 14.0696C13.3053 14.0696 16.3815 11.9407 18.2731 8.31099L18.4288 8.0019L18.3759 7.89196C17.9952 7.13322 17.5649 6.43727 17.0903 5.81157L16.8493 5.5046C16.6002 5.19807 16.6665 4.76253 16.9974 4.5318Z" fill="white"/>
</svg>
