<svg width="20" height="16" viewBox="0 0 20 16" fill="none" xmlns="http://www.w3.org/2000/svg">
<path fill-rule="evenodd" clip-rule="evenodd" d="M10.0008 4.11328C7.84044 4.11328 6.08984 5.85295 6.08984 8.00002C6.08984 10.1463 7.84063 11.8858 10.0008 11.8858C12.1612 11.8858 13.9128 10.1462 13.9128 8.00002C13.9128 5.85307 12.1614 4.11328 10.0008 4.11328ZM10.0005 5.60369C11.3327 5.60369 12.4125 6.67632 12.4125 8.00012C12.4125 9.32304 11.3325 10.3955 10.0005 10.3955C8.6687 10.3955 7.58949 9.3233 7.58949 8.00012C7.58949 6.67605 8.66858 5.60369 10.0005 5.60369Z" fill="white"/>
<path fill-rule="evenodd" clip-rule="evenodd" d="M10.2882 0.00481888L10.002 0C5.86108 0 2.12926 2.92308 0.0609149 7.70583C-0.020305 7.89364 -0.020305 8.10636 0.0609149 8.29416L0.204239 8.61679C2.24638 13.0931 5.77544 15.8644 9.71179 15.9952L9.998 16C14.1389 16 17.8707 13.0769 19.9391 8.29416C20.0213 8.10399 20.0203 7.88839 19.9361 7.69904L19.7968 7.38563C17.7497 2.90091 14.2192 0.135466 10.2882 0.00481888ZM10.0093 1.48926L10.2483 1.4944L10.5153 1.50829C13.7125 1.73468 16.6529 4.10537 18.4293 7.99894L18.42 8.02297C16.599 12.0003 13.5573 14.3851 10.2592 14.5048L10.0043 14.5086L9.74724 14.5052L9.48092 14.4913C6.38303 14.2719 3.52669 12.0342 1.73946 8.35954L1.57031 7.99894L1.72689 7.66603C3.61149 3.77298 6.69179 1.49011 10.0093 1.48926Z" fill="white"/>
</svg>
